HIERARCHY
ROOT SpineBase
{
  OFFSET 0.000000 0.000000 0.000000
  CHANNELS 6 Xposition Yposition Zposition Zrotation Xrotation Yrotation
  JOINT SpineMid
  {
    OFFSET 0.000000 29.134126 0.000000
    CHANNELS 3 Zrotation Xrotation Yrotation
    JOINT SpineShoulder
    {
      OFFSET 0.011041 21.738212 -0.711827
      CHANNELS 3 Zrotation Xrotation Yrotation
      JOINT Neck
      {
        OFFSET 0.014898 7.201598 -0.561061
        CHANNELS 3 Zrotation Xrotation Yrotation
        JOINT Head
        {
          OFFSET -4.073250 12.343708 1.239382
          CHANNELS 3 Zrotation Xrotation Yrotation
          End Site
          {
            OFFSET 0 0 0
          }
        }
      }
      JOINT ShoulderLeft
      {
        OFFSET -12.386178 -6.778793 7.848845
        CHANNELS 3 Zrotation Xrotation Yrotation
        JOINT ElbowLeft
        {
          OFFSET 0.078971 -27.483878 -9.774435
          CHANNELS 3 Zrotation Xrotation Yrotation
          JOINT WristLeft
          {
            OFFSET -4.111365 -20.601422 2.120346
            CHANNELS 3 Zrotation Xrotation Yrotation
            JOINT HandLeft
            {
              OFFSET 0.969154 -3.858540 4.619595
              CHANNELS 3 Zrotation Xrotation Yrotation
              JOINT HandTipLeft
              {
                OFFSET -0.110124 -3.141064 0.448330
                CHANNELS 3 Zrotation Xrotation Yrotation
                End Site
                {
                  OFFSET 0 0 0
                }
              }
              JOINT ThumbLeft
              {
                OFFSET 1.172287 1.617651 -2.175334
                CHANNELS 3 Zrotation Xrotation Yrotation
                End Site
                {
                  OFFSET 0 0 0
                }
              }
            }
          }
        }
      }
      JOINT ShoulderRight
      {
        OFFSET 11.060394 -2.499986 -10.127353
        CHANNELS 3 Zrotation Xrotation Yrotation
        JOINT ElbowRight
        {
          OFFSET 6.419176 -22.028564 -4.484153
          CHANNELS 3 Zrotation Xrotation Yrotation
          JOINT WristRight
          {
            OFFSET -3.699713 -20.889407 -4.311541
            CHANNELS 3 Zrotation Xrotation Yrotation
            JOINT HandRight
            {
              OFFSET -2.309443 -4.606551 -0.594311
              CHANNELS 3 Zrotation Xrotation Yrotation
              JOINT HandTipRight
              {
                OFFSET -1.692719 -6.922762 0.510778
                CHANNELS 3 Zrotation Xrotation Yrotation
                End Site
                {
                  OFFSET 0 0 0
                }
              }
              JOINT ThumbRight
              {
                OFFSET 2.427488 -1.422813 -2.163809
                CHANNELS 3 Zrotation Xrotation Yrotation
                End Site
                {
                  OFFSET 0 0 0
                }
              }
            }
          }
        }
      }
    }
  }
  JOINT HipLeft
  {
    OFFSET -5.326408 0.474709 0.530307
    CHANNELS 3 Zrotation Xrotation Yrotation
    JOINT KneeLeft
    {
      OFFSET 5.343080 -30.005602 1.609221
      CHANNELS 3 Zrotation Xrotation Yrotation
      JOINT AnkleLeft
      {
        OFFSET 8.031033 -31.275290 6.559204
        CHANNELS 3 Zrotation Xrotation Yrotation
        JOINT FootLeft
        {
          OFFSET -4.855550 -3.695381 -10.028684
          CHANNELS 3 Zrotation Xrotation Yrotation
          End Site
          {
            OFFSET 0 0 0
          }
        }
      }
    }
  }
  JOINT HipRight
  {
    OFFSET 5.045588 1.335816 -7.139094
    CHANNELS 3 Zrotation Xrotation Yrotation
    JOINT KneeRight
    {
      OFFSET 6.766872 -26.471901 -1.518125
      CHANNELS 3 Zrotation Xrotation Yrotation
      JOINT AnkleRight
      {
        OFFSET 7.869785 -36.506539 5.167015
        CHANNELS 3 Zrotation Xrotation Yrotation
        JOINT FootRight
        {
          OFFSET -6.280866 -2.370496 -12.301545
          CHANNELS 3 Zrotation Xrotation Yrotation
          End Site
          {
            OFFSET 0 0 0
          }
        }
      }
    }
  }
}
MOTION
Frames: 13
Frame Time: 0.033333
12.288168 69.769197 328.836260 -0.000000 0.000000 36.480461 0.000000 0.000000 -36.480461 -0.000000 0.000000 0.000000 -0.000000 0.000000 0.000000 0.000000 0.000000 0.000000 -0.000000 0.000000 0.000000 -0.000000 0.000000 0.000000 -0.000000 0.000000 0.000000 -0.000000 0.000000 0.000000 0.000000 0.000000 0.000000 0.000000 0.000000 0.000000 -0.000000 0.000000 0.000000 -0.000000 0.000000 0.000000 -0.000000 0.000000 0.000000 -0.000000 0.000000 0.000000 0.000000 0.000000 0.000000 0.000000 0.000000 0.000000 0.000000 0.000000 -36.480461 -0.000000 0.000000 0.000000 -0.000000 0.000000 0.000000 0.000000 0.000000 0.000000 0.000000 0.000000 -36.480461 -0.000000 0.000000 0.000000 -0.000000 0.000000 0.000000 0.000000 0.000000 0.000000
12.382065 69.704300 328.761464 0.154752 0.198140 36.269668 -0.241984 -0.068199 -36.270080 -0.000000 0.000000 0.000000 -0.000000 0.000000 0.000000 0.000000 0.000000 0.000000 -0.000000 0.000000 0.000000 -0.439886 -1.126095 0.174831 -0.911258 6.015823 -0.528590 3.233972 3.764488 0.476450 0.000000 0.000000 0.000000 0.000000 0.000000 0.000000 -0.000000 0.000000 0.000000 -0.000000 0.000000 0.000000 -0.592995 -0.591843 0.369446 -0.263576 3.160650 -1.039749 0.000000 0.000000 0.000000 0.000000 0.000000 0.000000 -0.241984 -0.068199 -36.270080 -0.000000 0.000000 0.000000 5.813777 -5.995389 -9.585805 0.000000 0.000000 0.000000 -0.241984 -0.068199 -36.270080 -0.000000 0.000000 0.000000 1.570655 -3.352604 0.961082 0.000000 0.000000 0.000000
12.428096 69.654824 328.738218 0.250989 0.313028 36.347231 -0.387682 -0.103367 -36.348266 -0.000000 0.000000 0.000000 -0.265924 0.803219 0.293637 0.000000 0.000000 0.000000 -0.000000 0.000000 0.000000 -0.606438 -1.963782 0.318236 -1.779489 11.116776 -0.729461 5.947119 8.705301 0.779857 0.000000 0.000000 0.000000 0.000000 0.000000 0.000000 -0.000000 0.000000 0.000000 -0.000000 0.000000 0.000000 -0.872429 -1.231721 0.718957 -0.607508 6.068171 -1.938397 0.000000 0.000000 0.000000 0.000000 0.000000 0.000000 -0.387682 -0.103367 -36.348266 -0.000000 0.000000 0.000000 10.491684 -12.689371 -18.266359 0.000000 0.000000 0.000000 -1.023269 -0.646445 -36.549804 0.187214 0.814762 0.196047 3.284805 -6.870481 2.239884 0.000000 0.000000 0.000000
12.426264 69.620769 328.766520 0.289337 0.345514 36.708752 -0.438487 -0.104038 -36.710022 -0.000000 0.000000 0.000000 -0.556840 1.324176 0.499543 0.000000 0.000000 0.000000 -0.000000 0.000000 0.000000 -0.497263 -2.504832 0.436548 -2.451999 14.635704 -0.636120 7.460098 12.888599 0.720080 0.000000 0.000000 0.000000 0.000000 0.000000 0.000000 -0.000000 0.000000 0.000000 -0.000000 0.000000 0.000000 -0.818038 -1.903319 1.044718 -1.034652 8.606499 -2.683333 0.000000 0.000000 0.000000 0.000000 0.000000 0.000000 -0.438487 -0.104038 -36.710022 -0.000000 0.000000 0.000000 13.475953 -18.428633 -24.630040 0.000000 0.000000 0.000000 -1.177442 -0.794150 -36.960063 0.175589 0.995711 0.242723 5.100716 -10.389549 3.851727 0.000000 0.000000 0.000000
12.376566 69.602134 328.846371 0.270181 0.296103 37.353540 -0.394424 -0.071444 -37.354484 -0.000000 0.000000 0.000000 -0.956449 1.924475 0.747998 0.000000 0.000000 0.000000 -0.000000 0.000000 0.000000 -0.111865 -2.744073 0.532119 -2.800493 16.053965 -0.315799 7.385347 14.616116 0.234411 0.000000 0.000000 0.000000 0.000000 0.000000 0.000000 -0.000000 0.000000 0.000000 -0.748308 0.412755 0.083885 0.319439 -3.001720 1.262818 -1.537469 10.663640 -3.262827 0.000000 0.000000 0.000000 0.000000 0.000000 0.000000 -0.394424 -0.071444 -37.354484 -0.000000 0.000000 0.000000 14.951763 -22.049349 -28.018631 0.000000 0.000000 0.000000 -1.098877 -0.828801 -37.617606 0.095770 1.029872 0.256727 6.936349 -13.693021 5.767178 0.000000 0.000000 0.000000
12.279004 69.598921 328.977770 0.193673 0.164965 38.284237 -0.254229 -0.009495 -38.284537 -0.000000 0.000000 0.000000 -1.467086 2.603116 1.041783 0.000000 0.000000 0.000000 -0.682117 0.461257 0.246315 1.217378 -3.145368 0.366388 -2.776620 15.150185 0.178437 5.742362 13.712395 -0.648291 0.000000 0.000000 0.000000 0.000000 0.000000 0.000000 -0.000000 0.000000 0.000000 -1.141944 0.296228 0.185763 1.428031 -3.569373 1.438588 -2.095767 12.136052 -3.664756 0.000000 0.000000 0.000000 0.000000 0.000000 0.000000 -0.254229 -0.009495 -38.284537 -0.000000 0.000000 0.000000 15.264993 -23.099229 -28.248688 0.000000 0.000000 0.000000 -0.785918 -0.760636 -38.525877 -0.051886 0.918802 0.238183 8.662567 -16.541006 7.897658 0.000000 0.000000 0.000000
12.111292 69.582036 329.179124 0.073042 -0.053020 39.567595 -0.022533 0.087398 -39.567544 -0.000000 0.000000 0.000000 -2.411032 3.278087 1.398761 0.000000 0.000000 0.000000 -1.433296 0.439121 0.515834 3.702344 -3.635869 0.445848 -0.901863 6.823057 1.625542 4.917656 16.609223 -3.288337 0.000000 0.000000 0.000000 0.000000 0.000000 0.000000 -0.000000 0.000000 0.000000 -1.676308 0.071137 0.333546 3.371313 -3.864530 1.418607 -1.625229 12.813874 -3.868754 0.000000 0.000000 0.000000 0.000000 0.000000 0.000000 0.580861 1.020943 -39.383604 0.125941 -1.104395 -0.188562 11.449725 -15.935029 -17.260111 0.000000 0.000000 0.000000 -0.022533 0.087398 -39.567544 -0.000000 0.000000 0.000000 9.348020 -17.595239 9.018104 0.000000 0.000000 0.000000
11.927997 69.586232 329.447083 -0.097923 -0.353437 41.067864 0.306020 0.202135 -41.068706 -0.000000 0.000000 0.000000 -3.322367 4.195439 1.851209 0.000000 0.000000 0.000000 -2.222870 0.309283 0.796802 6.455599 -3.910857 0.521072 3.371303 -4.481497 5.654213 -4.947571 21.217620 -6.963576 0.000000 0.000000 0.000000 0.000000 0.000000 0.000000 -0.000000 0.000000 0.000000 -2.367910 -0.262900 0.528244 5.682304 -4.944671 1.797005 -1.427758 12.536602 -4.021550 0.000000 0.000000 0.000000 0.000000 0.000000 0.000000 1.353739 1.660627 -40.776068 0.158987 -1.788657 -0.307189 8.642168 -10.851947 -12.968706 0.000000 0.000000 0.000000 0.306020 0.202135 -41.068706 -0.000000 0.000000 0.000000 16.189262 -26.208273 17.148036 0.000000 0.000000 0.000000
11.697514 69.664765 329.697322 -0.339062 -0.697176 42.988493 0.723398 0.278769 -42.992316 -0.000000 0.000000 0.000000 -4.127099 5.274329 2.363261 0.000000 0.000000 0.000000 -3.128525 -0.074962 1.110961 9.263455 -3.427723 0.383050 1.572947 -4.220754 5.782452 -8.453769 16.122364 -6.627500 0.000000 0.000000 0.000000 0.000000 0.000000 0.000000 -0.453833 0.649021 0.284082 -2.685365 -1.170882 0.410052 7.771207 -5.275694 1.765891 -3.618009 11.704366 -3.614932 0.000000 0.000000 0.000000 0.000000 0.000000 0.000000 2.264875 2.254448 -42.593066 0.201836 -2.497469 -0.428931 6.697124 -9.258192 -7.752680 0.000000 0.000000 0.000000 1.579785 -0.202522 -42.988349 -0.954611 -0.231859 -0.006468 21.800371 -31.099540 24.648232 0.000000 0.000000 0.000000
11.465898 69.818934 329.937812 -0.627171 -1.068164 45.113931 1.199408 0.309367 -45.123015 -0.000000 0.000000 0.000000 -4.596536 6.249029 2.798121 0.000000 0.000000 0.000000 -3.994160 -0.586685 1.401548 9.366833 0.949275 -1.071096 -1.607393 -1.734094 3.731870 -7.080802 6.447940 -4.545852 0.000000 0.000000 0.000000 0.000000 0.000000 0.000000 -0.442852 0.844869 0.339486 -3.440615 -1.544307 0.509296 9.570163 -5.584643 1.722888 -5.806005 10.481548 -3.106399 0.000000 0.000000 0.000000 0.000000 0.000000 0.000000 3.192438 2.649877 -44.641568 0.225578 -3.065309 -0.526890 7.072986 -6.839580 -12.895766 0.000000 0.000000 0.000000 2.225745 0.014574 -45.046859 0.106161 -0.702175 0.035383 21.813652 -31.352895 27.826120 0.000000 0.000000 0.000000
11.218423 69.960639 330.119524 -0.975385 -1.409170 47.065356 1.696072 0.245565 -47.080987 -0.294298 -0.932255 -0.023379 -4.270606 7.951339 3.171503 0.000000 0.000000 0.000000 -4.381399 -0.100956 1.718911 10.025065 2.708202 -1.722331 -2.394810 -2.733485 3.080401 -7.057768 6.242087 -3.739646 0.000000 0.000000 0.000000 0.000000 0.000000 0.000000 -0.193787 2.109139 0.473300 -3.627167 -2.343197 0.489882 9.792673 -4.005901 0.882086 -6.646178 8.476214 -2.331979 0.000000 0.000000 0.000000 0.000000 0.000000 0.000000 4.020531 2.965956 -46.533807 0.374014 -3.557903 -0.600727 6.992527 -9.554494 -8.401184 0.000000 0.000000 0.000000 2.655581 0.074227 -46.978742 0.759890 -0.708067 0.099816 17.126696 -27.604892 25.736600 0.000000 0.000000 0.000000
11.004649 70.140621 330.222866 -1.249538 -1.711467 48.734480 0.955565 -0.105701 -48.772916 -0.024129 -0.299634 -0.025198 -3.886870 8.791132 3.350352 0.000000 0.000000 0.000000 -4.744079 -0.494315 1.969889 10.720736 4.588423 -2.349352 -3.903992 -2.255836 1.819450 -7.641421 0.674557 -2.783216 0.000000 0.000000 0.000000 0.000000 0.000000 0.000000 -0.149449 2.958413 0.670438 -3.546910 -3.277311 0.392024 9.368376 -2.767565 0.340942 -6.702454 6.036280 -1.685105 0.000000 0.000000 0.000000 0.000000 0.000000 0.000000 4.569952 3.362863 -48.170186 1.392390 -3.396854 -0.312734 8.148408 -15.065096 -7.161697 0.000000 0.000000 0.000000 2.904798 0.322500 -48.609515 1.768131 -0.853888 0.150079 6.419060 -16.586227 17.911524 0.000000 0.000000 0.000000
10.843809 70.259481 330.204441 -1.545717 -1.889616 50.174860 0.857795 -0.215771 -50.229987 -0.039273 -0.356918 -0.039869 -2.965588 9.523162 3.401962 0.000000 0.000000 0.000000 -4.897531 -0.722914 2.164044 11.039669 5.268358 -2.646313 -4.920725 -0.283895 0.911101 -5.575073 -0.479716 -1.950449 0.000000 0.000000 0.000000 0.000000 0.000000 0.000000 -0.359784 3.765793 0.953281 -3.061086 -4.078193 0.187300 8.822020 -2.194071 0.180473 -7.345883 4.247872 -1.313811 0.000000 0.000000 0.000000 0.000000 0.000000 0.000000 5.041984 3.471585 -49.581733 1.811622 -3.747791 -0.299308 8.189168 -16.270672 -5.450945 0.000000 0.000000 0.000000 2.441007 0.022568 -50.200834 2.854829 -0.186540 0.366528 1.897751 -11.013540 13.121441 0.000000 0.000000 0.000000
